<?xml version="1.0" standalone="no"?>
<!DOCTYPE svg PUBLIC "-//W3C//DTD SVG 20010904//EN"
 "http://www.w3.org/TR/2001/REC-SVG-20010904/DTD/svg10.dtd">
<svg version="1.0" xmlns="http://www.w3.org/2000/svg"
 width="3473.000000pt" height="3473.000000pt" viewBox="0 0 3473.000000 3473.000000"
 preserveAspectRatio="xMidYMid meet">
<metadata>
Created by potrace 1.11, written by Peter Selinger 2001-2013
</metadata>
<g transform="translate(0.000000,3473.000000) scale(0.100000,-0.100000)"
fill="#000000" stroke="none">
<path d="M21975 34716 c-35 -15 -81 -60 -100 -96 -13 -25 -20 -65 -30 -170 -3
-30 -7 -65 -9 -77 -3 -12 -8 -55 -11 -95 -3 -39 -8 -74 -9 -77 -2 -3 -7 -38
-10 -77 -4 -39 -8 -80 -10 -90 -2 -11 -7 -50 -10 -89 -4 -38 -9 -77 -11 -85
-2 -8 -7 -51 -10 -94 -3 -44 -7 -82 -9 -85 -2 -3 -6 -38 -10 -76 -4 -39 -8
-81 -11 -95 -2 -14 -6 -52 -9 -85 -3 -33 -8 -70 -10 -82 -3 -12 -7 -53 -11
-91 -3 -38 -7 -78 -10 -90 -2 -11 -7 -52 -10 -89 -4 -37 -8 -79 -10 -93 -6
-36 -23 -185 -30 -250 -3 -30 -7 -71 -10 -90 -9 -68 -21 -170 -30 -250 -11
-100 -16 -144 -25 -220 -5 -41 -12 -100 -15 -131 -3 -31 -7 -65 -9 -75 -2 -11
-7 -50 -10 -89 -4 -38 -9 -81 -11 -95 -2 -14 -6 -50 -10 -80 -3 -30 -7 -71
-10 -90 -2 -19 -7 -57 -10 -85 -3 -27 -8 -66 -10 -85 -2 -19 -7 -60 -10 -90
-4 -30 -8 -66 -10 -80 -2 -14 -6 -52 -9 -85 -4 -33 -8 -76 -11 -95 -2 -19 -7
-57 -10 -85 -3 -27 -7 -61 -10 -75 -2 -14 -7 -52 -10 -85 -7 -76 -15 -152 -21
-187 -2 -15 -6 -49 -9 -75 -6 -60 -14 -137 -21 -183 -2 -19 -6 -58 -9 -85 -2
-28 -6 -64 -9 -80 -3 -17 -10 -75 -16 -130 -6 -55 -13 -118 -16 -140 -2 -22
-7 -60 -10 -85 -2 -25 -6 -61 -9 -80 -2 -19 -7 -60 -10 -90 -4 -30 -8 -66 -10
-80 -2 -14 -7 -54 -10 -90 -3 -36 -8 -76 -10 -90 -3 -25 -13 -103 -20 -170 -7
-60 -16 -144 -20 -170 -2 -14 -7 -54 -10 -90 -4 -36 -9 -72 -10 -81 -2 -8 -6
-48 -10 -88 -3 -40 -8 -80 -10 -89 -2 -13 -13 -109 -20 -177 -3 -27 -17 -143
-20 -165 -6 -41 -15 -122 -20 -175 -3 -27 -7 -68 -10 -90 -3 -22 -7 -60 -10
-85 -3 -25 -8 -63 -10 -85 -3 -22 -7 -60 -10 -85 -2 -25 -6 -61 -9 -80 -3 -19
-8 -62 -11 -95 -3 -33 -8 -69 -10 -80 -2 -11 -7 -47 -10 -80 -11 -110 -15
-150 -21 -185 -3 -19 -7 -55 -9 -80 -2 -25 -7 -65 -10 -90 -6 -47 -8 -62 -20
-170 -3 -36 -8 -76 -10 -90 -3 -14 -7 -50 -10 -80 -3 -30 -7 -71 -10 -90 -2
-19 -7 -60 -10 -90 -4 -30 -8 -66 -10 -80 -2 -14 -7 -56 -10 -95 -3 -38 -8
-77 -10 -85 -2 -8 -7 -44 -10 -80 -4 -36 -8 -76 -10 -90 -2 -14 -7 -54 -10
-90 -4 -36 -9 -73 -10 -82 -2 -9 -6 -45 -9 -80 -4 -35 -8 -79 -11 -98 -12 -90
-19 -153 -30 -255 -4 -33 -8 -71 -10 -85 -2 -14 -6 -50 -10 -80 -14 -133 -26
-229 -30 -260 -2 -14 -9 -70 -15 -125 -6 -55 -13 -116 -15 -135 -2 -19 -7 -60
-10 -90 -3 -30 -8 -73 -11 -95 -6 -54 -12 -99 -19 -165 -4 -30 -9 -57 -11 -59
-2 -2 -2410 -3 -5351 -3 -5804 0 -5417 4 -5540 -53 -189 -86 -307 -242 -348
-461 -2 -11 -4 -355 -4 -765 l-1 -746 -492 0 c-271 0 -514 -3 -540 -7 -224
-31 -404 -174 -494 -391 l-29 -70 -2 -505 c-3 -544 -2 -554 51 -674 68 -152
229 -285 396 -328 66 -17 105 -19 364 -21 192 -2 199 -3 201 -22 7 -83 17
-180 20 -198 2 -12 6 -53 10 -92 3 -38 8 -83 10 -100 2 -16 7 -57 10 -90 3
-33 8 -73 10 -90 2 -16 7 -57 10 -90 3 -33 10 -100 15 -150 6 -49 13 -115 16
-145 3 -30 7 -68 9 -85 2 -16 7 -57 10 -90 3 -33 8 -80 10 -105 3 -25 8 -67
10 -95 5 -46 9 -83 20 -175 3 -19 12 -105 20 -190 9 -85 18 -166 20 -180 3
-14 7 -54 10 -90 3 -36 7 -76 9 -90 3 -14 7 -54 11 -90 3 -36 7 -78 9 -95 2
-16 7 -61 11 -98 3 -37 8 -76 10 -85 1 -9 6 -52 9 -94 4 -42 8 -85 10 -95 2
-10 7 -49 10 -88 4 -38 8 -81 10 -95 3 -14 7 -56 11 -95 4 -38 8 -83 10 -100
2 -16 7 -61 10 -100 4 -38 8 -77 10 -85 1 -8 6 -46 9 -85 4 -38 9 -81 11 -95
2 -14 7 -55 10 -92 3 -37 7 -75 9 -85 2 -10 7 -49 10 -88 7 -71 14 -136 21
-190 2 -16 6 -59 10 -95 3 -36 8 -81 10 -100 7 -47 13 -103 20 -173 3 -32 7
-72 10 -90 2 -18 7 -59 10 -92 6 -65 14 -133 20 -180 2 -16 6 -61 10 -100 4
-38 8 -81 10 -95 2 -14 6 -52 10 -85 3 -33 8 -73 10 -90 2 -16 7 -61 10 -100
4 -38 9 -77 10 -86 2 -9 6 -52 10 -95 3 -43 8 -86 10 -94 2 -8 7 -46 10 -85 4
-38 8 -77 10 -85 2 -8 7 -51 11 -95 3 -44 8 -88 9 -97 2 -9 7 -48 10 -85 4
-37 8 -79 10 -93 2 -14 7 -52 10 -85 3 -33 8 -76 10 -95 3 -19 7 -56 10 -82 6
-58 14 -130 20 -183 3 -22 7 -62 10 -90 3 -27 8 -68 10 -90 3 -22 7 -61 10
-87 3 -27 7 -69 10 -95 3 -27 7 -66 10 -88 2 -22 7 -67 10 -100 4 -33 8 -71
10 -85 2 -14 6 -54 10 -90 4 -36 8 -76 10 -90 2 -14 7 -56 11 -95 3 -38 8 -78
9 -87 2 -9 6 -48 10 -85 3 -37 8 -79 10 -93 2 -14 7 -49 10 -77 10 -100 16
-158 20 -183 2 -14 6 -55 10 -92 3 -37 7 -75 9 -85 2 -10 7 -49 10 -88 4 -38
9 -81 11 -95 2 -14 6 -52 10 -85 3 -33 8 -73 10 -90 3 -16 7 -59 11 -95 3 -36
7 -76 9 -90 2 -14 6 -45 8 -70 15 -141 18 -167 22 -190 2 -14 7 -56 11 -95 3
-38 8 -78 9 -87 2 -9 7 -48 10 -85 4 -37 9 -75 10 -84 2 -9 6 -52 10 -95 3
-43 8 -86 10 -94 2 -8 7 -44 10 -80 3 -36 8 -76 10 -90 2 -14 7 -53 10 -87 3
-34 7 -70 9 -80 2 -10 7 -52 11 -93 4 -41 8 -82 10 -90 2 -8 6 -44 9 -80 4
-36 9 -81 11 -100 5 -39 12 -100 20 -175 3 -27 8 -61 10 -75 3 -14 7 -52 10
-85 3 -33 7 -76 10 -95 2 -19 7 -56 10 -82 3 -27 7 -69 10 -95 11 -95 16 -139
20 -168 3 -16 7 -52 10 -80 12 -115 17 -161 21 -185 2 -14 6 -54 9 -90 4 -36
8 -72 10 -80 2 -8 7 -49 10 -90 4 -41 8 -82 10 -90 1 -8 6 -44 10 -80 3 -36 8
-76 10 -90 2 -14 7 -50 10 -80 3 -30 8 -71 10 -90 2 -19 7 -60 10 -90 3 -30 8
-66 10 -80 2 -14 6 -50 10 -80 3 -30 8 -71 10 -90 2 -19 7 -60 10 -90 3 -30
10 -89 15 -130 5 -41 12 -97 15 -125 3 -27 7 -67 10 -87 10 -76 14 -114 20
-173 4 -33 8 -71 10 -85 2 -14 6 -50 10 -80 3 -30 8 -66 10 -80 2 -14 7 -54
10 -90 4 -36 8 -76 10 -90 2 -14 7 -50 10 -80 3 -30 10 -91 16 -135 6 -44 12
-93 14 -110 3 -30 11 -102 21 -180 3 -22 7 -56 9 -75 14 -120 17 -148 20 -170
2 -14 7 -50 10 -80 3 -30 7 -64 9 -75 2 -11 7 -51 11 -88 3 -37 8 -76 10 -85
1 -9 6 -51 10 -92 4 -41 9 -78 11 -81 2 -3 6 -37 9 -75 3 -37 7 -75 9 -84 3
-8 7 -46 11 -83 3 -37 8 -78 11 -90 2 -12 6 -46 9 -75 3 -29 7 -67 10 -85 4
-28 24 -194 40 -332 3 -27 7 -61 10 -75 3 -23 6 -46 21 -175 3 -27 7 -61 9
-75 5 -30 22 -165 30 -235 3 -27 8 -63 10 -80 2 -16 7 -52 10 -80 3 -27 7 -61
10 -75 2 -14 7 -52 10 -85 4 -33 9 -73 11 -90 2 -16 5 -48 8 -70 2 -22 7 -56
10 -75 3 -19 8 -57 11 -85 3 -27 7 -63 10 -80 7 -49 13 -96 20 -160 3 -33 8
-69 10 -80 2 -11 7 -42 10 -70 3 -27 10 -81 15 -120 12 -90 18 -138 25 -200 3
-27 8 -61 10 -75 3 -14 7 -50 10 -80 3 -30 8 -66 10 -80 4 -26 7 -45 25 -190
6 -47 13 -98 16 -115 2 -16 6 -48 9 -70 2 -22 9 -71 14 -110 6 -38 13 -90 16
-115 3 -25 7 -54 9 -65 2 -11 7 -47 10 -80 4 -33 9 -71 11 -85 5 -32 12 -83
20 -145 3 -27 8 -61 10 -75 3 -14 7 -47 10 -75 3 -27 8 -61 10 -75 7 -37 13
-79 20 -135 3 -27 10 -77 15 -110 5 -33 11 -78 14 -100 3 -22 13 -89 22 -150
9 -60 18 -126 20 -145 4 -31 19 -135 29 -196 6 -38 18 -139 17 -144 -1 -11
100 -67 263 -146 336 -163 570 -247 1155 -414 100 -29 478 -116 625 -144 11
-2 65 -13 120 -25 55 -11 111 -22 125 -25 14 -2 52 -9 85 -15 33 -6 76 -13 95
-16 19 -3 58 -10 85 -15 53 -10 108 -18 165 -26 19 -2 46 -6 60 -9 47 -10 65
-13 121 -19 31 -4 65 -8 75 -10 11 -2 42 -7 69 -10 28 -4 61 -8 75 -11 14 -2
48 -7 75 -10 73 -8 137 -16 165 -21 14 -2 50 -7 80 -9 30 -3 73 -8 95 -10 100
-14 216 -26 270 -30 22 -2 65 -6 95 -9 108 -12 136 -15 213 -21 42 -3 96 -8
120 -10 50 -4 165 -13 262 -20 264 -19 308 -22 455 -30 63 -3 147 -8 185 -10
318 -21 1496 -28 1820 -12 88 5 201 10 250 12 50 2 131 6 180 9 50 4 128 9
175 12 173 10 298 19 420 29 30 3 84 7 120 10 69 5 156 13 230 20 25 2 72 7
105 10 109 10 219 22 285 30 19 2 58 7 85 10 118 12 197 22 345 41 166 22 182
24 210 29 31 6 62 10 165 25 108 15 136 20 165 25 14 3 40 7 58 10 17 3 47 7
65 10 17 3 55 10 82 15 28 5 66 12 85 15 36 5 65 11 110 21 14 3 39 7 55 10
17 3 104 21 195 40 822 170 1463 387 1963 667 12 6 23 12 24 12 2 1 18 101 28
175 3 25 10 70 15 100 5 30 12 79 15 109 4 30 8 61 10 70 4 24 14 91 20 141 4
25 8 56 10 70 2 14 6 45 10 70 3 25 8 56 10 70 2 14 7 45 10 70 4 25 8 56 10
70 2 14 6 48 10 75 10 86 25 198 30 226 2 9 6 40 10 70 3 30 8 65 10 79 2 14
7 44 10 68 7 58 15 122 20 152 8 59 15 108 19 145 3 22 8 60 12 85 7 53 11 88
19 155 4 28 10 77 15 110 5 33 12 87 16 120 3 33 8 69 10 80 2 11 7 44 10 74
3 30 7 62 9 70 2 9 6 45 9 81 4 36 11 90 16 120 5 30 12 80 15 110 3 30 7 64
9 75 2 11 7 47 10 80 4 33 8 71 11 85 2 14 7 48 10 75 7 62 13 110 25 200 5
39 12 93 15 120 3 28 8 64 10 80 10 72 17 132 20 155 6 53 16 137 20 170 3 19
7 53 10 75 6 55 16 135 20 165 2 14 7 50 10 80 3 30 8 66 10 80 2 14 6 50 10
80 4 30 8 66 10 80 2 14 7 54 10 90 4 36 8 72 10 80 2 9 6 40 9 70 4 30 9 73
12 95 2 22 6 56 8 75 2 19 7 53 10 75 3 22 10 79 16 127 5 49 15 127 20 175
10 84 15 125 25 203 2 19 7 60 10 90 4 30 8 66 10 80 2 14 6 48 9 75 16 142
17 144 31 250 5 41 11 94 20 180 3 28 8 68 11 90 3 22 7 57 9 78 11 83 14 114
20 167 3 30 8 62 10 70 2 8 7 49 10 90 4 41 9 83 10 92 2 9 6 45 10 80 3 35 8
74 10 88 2 14 7 54 10 90 4 36 8 72 10 80 1 8 6 42 9 75 12 100 16 138 21 175
2 19 7 58 10 85 3 28 8 66 10 85 3 19 7 60 10 90 3 30 7 69 10 85 2 17 7 55
10 85 3 30 8 72 10 93 8 64 14 110 21 177 3 36 7 72 9 80 1 8 6 47 10 85 4 39
8 77 10 85 1 8 6 47 9 85 4 39 9 84 12 100 3 17 7 48 9 70 3 22 7 67 10 100 4
33 8 71 10 85 2 14 6 50 10 80 3 30 8 73 11 95 9 76 13 110 24 210 6 55 13
112 16 126 2 15 6 55 9 90 3 35 8 78 10 94 2 17 7 55 10 85 3 30 8 71 10 90 3
19 12 96 20 170 8 74 17 151 20 170 2 19 7 64 11 100 3 36 7 72 9 80 2 8 6 49
10 90 4 41 8 82 10 90 2 8 6 44 10 80 3 36 8 82 10 102 3 20 9 79 15 130 6 51
12 104 15 118 2 14 7 59 10 100 4 41 8 82 10 90 1 8 6 46 10 83 3 37 8 76 10
85 1 9 6 51 10 92 4 41 8 82 10 90 1 8 6 46 10 83 3 37 8 76 10 85 1 9 6 53
10 96 4 43 8 88 10 98 2 11 7 49 10 86 4 37 8 78 10 92 2 14 11 90 20 170 9
80 18 161 20 180 2 19 7 60 10 90 3 30 7 71 10 90 2 19 7 60 10 90 3 30 7 71
10 90 4 33 7 63 20 185 3 28 8 66 10 85 2 19 7 60 10 90 7 67 13 122 20 175 2
22 7 67 10 100 4 33 8 74 10 90 2 17 9 75 15 130 6 55 13 116 15 135 2 19 7
63 10 97 3 34 7 70 9 80 2 10 7 50 10 88 4 39 9 86 11 105 8 75 17 146 20 170
2 14 6 56 10 93 3 37 8 76 9 85 2 9 7 53 11 97 4 44 8 87 10 95 1 8 6 44 9 80
4 36 9 81 11 100 2 19 7 60 10 90 3 30 8 71 10 90 8 66 14 125 20 192 3 37 7
75 9 85 2 10 7 52 11 93 3 41 8 82 10 90 2 8 7 49 10 90 3 41 8 86 10 100 2
14 6 50 10 80 3 30 8 71 10 90 5 41 12 112 20 190 3 30 8 66 10 80 2 14 6 57
10 95 4 39 9 86 11 105 9 85 15 141 25 230 11 103 16 147 24 225 3 28 8 66 10
85 3 19 7 67 11 105 3 39 8 77 9 86 2 9 6 52 10 95 4 43 9 87 10 96 2 9 6 48
10 85 3 37 8 84 10 103 8 60 14 113 20 175 3 33 8 78 10 100 3 22 7 60 10 85
2 25 7 68 10 95 3 28 8 73 11 100 2 28 7 61 9 75 2 14 7 59 10 100 4 41 8 86
10 100 2 14 6 54 10 90 4 36 8 76 10 90 2 14 7 59 10 100 4 41 8 77 10 80 2 3
6 48 10 100 4 52 8 97 10 100 1 3 6 41 9 85 4 44 9 91 11 105 2 14 6 54 10 90
4 36 8 76 10 90 2 14 6 51 9 83 3 31 9 83 12 115 3 31 7 68 9 82 2 14 7 57 10
95 4 39 8 81 10 95 2 14 7 59 10 100 4 41 9 78 11 81 2 3 120 6 263 6 143 1
274 4 293 8 124 25 253 91 332 171 57 58 120 160 147 239 l24 70 0 510 c0 565
2 545 -69 680 -38 74 -152 191 -226 232 -71 40 -169 73 -239 80 -31 3 -274 6
-540 7 l-484 1 -2 770 -2 770 -22 65 c-70 202 -232 351 -441 407 -14 4 -547 8
-1185 9 -638 2 -1170 3 -1183 3 -17 1 -22 5 -18 19 3 9 8 42 11 72 3 30 7 71
10 90 2 19 7 55 10 80 3 25 8 56 10 70 2 14 7 54 10 90 3 36 7 76 10 90 2 14
7 50 10 80 4 30 8 66 10 80 2 14 6 50 10 80 4 30 8 66 10 80 2 14 7 54 10 90
4 36 9 74 11 85 2 11 6 45 9 75 3 30 7 69 10 85 2 17 7 56 10 88 4 32 8 67 10
77 2 10 7 50 10 87 4 37 9 76 10 85 2 9 7 48 10 85 4 37 9 75 10 84 2 9 6 40
10 70 10 93 15 133 20 169 3 19 7 53 9 75 14 121 18 152 21 175 2 14 6 50 10
80 3 30 8 72 10 93 3 20 7 54 9 75 11 85 19 148 21 163 2 9 6 52 10 95 4 43 9
82 11 85 2 3 6 32 9 65 3 32 7 70 10 84 2 14 7 54 11 90 3 36 7 72 9 80 1 8 6
46 10 83 3 37 8 76 10 85 1 9 6 46 10 82 3 36 8 72 10 80 2 8 7 47 10 85 7 75
13 123 20 164 2 14 6 51 10 81 3 30 13 109 21 175 8 66 16 136 19 155 2 19 7
60 10 90 3 30 8 66 10 80 2 14 7 50 10 80 3 30 15 125 25 210 11 85 22 178 24
205 3 28 8 66 10 85 3 19 8 55 11 80 3 25 7 61 9 80 3 19 7 58 11 85 6 56 23
200 30 258 3 20 7 55 10 77 3 22 7 58 10 80 3 22 7 57 9 78 8 64 17 135 21
172 2 19 7 60 10 90 4 30 8 66 10 80 2 14 7 52 11 85 3 33 8 68 10 78 2 10 6
48 10 85 3 36 7 73 9 82 2 8 6 47 10 85 4 39 9 78 11 89 2 10 6 44 9 75 4 31
8 67 10 81 2 14 6 50 10 80 3 30 10 91 16 135 5 44 12 98 15 120 2 22 7 56 9
75 3 19 7 58 10 85 2 28 6 66 9 85 6 46 15 115 21 165 3 22 7 56 10 75 2 19 7
60 10 90 8 78 15 131 20 160 2 14 7 54 11 90 3 36 7 72 9 80 2 8 6 49 10 90 4
41 8 77 10 80 1 3 6 37 9 75 4 39 9 77 11 85 2 8 6 44 10 80 3 36 7 75 9 85 2
11 7 49 11 85 4 36 9 72 10 82 2 9 6 45 10 80 3 34 8 77 10 93 2 17 6 53 10
81 3 29 7 60 9 70 2 11 7 50 11 87 3 37 8 76 10 85 1 9 6 44 9 77 6 57 9 83
21 173 16 132 35 285 40 332 3 30 8 71 10 90 3 19 7 53 10 75 3 22 7 56 10 75
33 244 23 301 -64 364 l-43 31 -746 2 c-604 2 -753 0 -777 -11z"/>
</g>
</svg>
